HIERARCHY
ROOT Hips
{
  OFFSET 265.287 66.7526 -254.649
  CHANNELS 6 Xposition Yposition Zposition Zrotation Xrotation Yrotation
  JOINT LeftUpLeg
  {
    OFFSET 8.64259 1.95398 -2.38835
    CHANNELS 3 Zrotation Xrotation Yrotation
    JOINT LeftLeg
    {
      OFFSET 43.7702 0 0
      CHANNELS 3 Zrotation Xrotation Yrotation
      JOINT LeftFoot
      {
        OFFSET 40.6238 0 0
        CHANNELS 3 Zrotation Xrotation Yrotation
        JOINT LeftToeBase
        {
          OFFSET 12.7242 0 0
          CHANNELS 3 Zrotation Xrotation Yrotation
          End Site
          {
            OFFSET 0 0 0
          }
        }
      }
    }
  }
  JOINT RightUpLeg
  {
    OFFSET -8.2249 1.95398 -2.59336
    CHANNELS 3 Zrotation Xrotation Yrotation
    JOINT RightLeg
    {
      OFFSET 43.5653 0 0
      CHANNELS 3 Zrotation Xrotation Yrotation
      JOINT RightFoot
      {
        OFFSET 40.6238 0 0
        CHANNELS 3 Zrotation Xrotation Yrotation
        JOINT RightToeBase
        {
          OFFSET 12.7242 0 0
          CHANNELS 3 Zrotation Xrotation Yrotation
          End Site
          {
            OFFSET 0 0 0
          }
        }
      }
    }
  }
  JOINT Spine
  {
    OFFSET 0.165834 0.87714 6.61349
    CHANNELS 3 Zrotation Xrotation Yrotation
    JOINT Spine1
    {
      OFFSET 7.38963 1.71661e-005 0
      CHANNELS 3 Zrotation Xrotation Yrotation
      JOINT Spine2
      {
        OFFSET 11.9445 1.14441e-005 0
        CHANNELS 3 Zrotation Xrotation Yrotation
        JOINT Spine3
        {
          OFFSET 14.7254 4.19617e-005 0
          CHANNELS 3 Zrotation Xrotation Yrotation
          JOINT Spine4
          {
            OFFSET 10.9679 0 0
            CHANNELS 3 Zrotation Xrotation Yrotation
            JOINT RightShoulder
            {
              OFFSET 2.46616 -1.6653 3.69651
              CHANNELS 3 Zrotation Xrotation Yrotation
              JOINT RightArm
              {
                OFFSET 13.0012 0 0
                CHANNELS 3 Zrotation Xrotation Yrotation
                JOINT RightForeArm
                {
                  OFFSET 28.7848 1.52588e-005 0
                  CHANNELS 3 Zrotation Xrotation Yrotation
                  JOINT RightHand
                  {
                    OFFSET 26.5688 1.52588e-005 0
                    CHANNELS 3 Zrotation Xrotation Yrotation
                    End Site
                    {
                      OFFSET 0 0 0
                    }
                  }
                }
              }
            }
            JOINT LeftShoulder
            {
              OFFSET 2.38034 -1.29275 -3.7523
              CHANNELS 3 Zrotation Xrotation Yrotation
              JOINT LeftArm
              {
                OFFSET 16.3182 6.10351e-005 0
                CHANNELS 3 Zrotation Xrotation Yrotation
                JOINT LeftForeArm
                {
                  OFFSET 27.0901 0 0
                  CHANNELS 3 Zrotation Xrotation Yrotation
                  JOINT LeftHand
                  {
                    OFFSET 24.5451 1.52588e-005 0
                    CHANNELS 3 Zrotation Xrotation Yrotation
                    End Site
                    {
                      OFFSET 0 0 0
                    }
                  }
                }
              }
            }
            JOINT Neck
            {
              OFFSET 5.0226 -0.0266342 0
              CHANNELS 3 Zrotation Xrotation Yrotation
              JOINT Head
              {
                OFFSET 6.69364 2.86102e-005 0
                CHANNELS 3 Zrotation Xrotation Yrotation
                End Site
                {
                  OFFSET 0 0 0
                }
              }
            }
          }
        }
      }
    }
  }
}
MOTION
Frames:	17
Frame Time:	0.0416667
5.94311 50.854 21.038 2.033 -38.5519 4.39262 -165.186 62.6804 92.091 -113.762 3.57563 1.41015 74.9097 3.82897 -14.4874 57.3173 -10.7784 -12.0636 170.484 55.2035 69.7439 -99.8294 -21.4651 -2.20527 92.6293 -5.75522 27.8214 61.4848 -2.71641 11.4322 1.27831 10.6567 -89.477 5.5473 2.77203 0.961384 -6.12095 2.81165 0.838367 -28.6715 2.35492 1.75037 -8.65889 2.35492 1.75035 101.541 4.46006 -84.9892 -18.2483 26.3622 -49.8061 -2.19584 -23.8833 -11.0025 -20.3615 -1.31768 2.31467 -81.9576 -26.8791 88.3277 -4.05263 -0.189476 -94.6571 5.48148 29.3981 -14.7092 47.4065 8.40501 13.8182 5.21686 -9.13455 24.4777 25.6058 -20.1364 -25.5147 
4.50389 49.8659 30.2872 6.07785 -36.2636 8.08702 -173.532 55.3455 100.105 -104.978 8.04457 0.986833 70.7295 2.43567 -13.8084 57.39 -10.8535 -12.3249 165.644 44.7158 75.2631 -89.7147 -19.9996 -0.415156 92.5975 -6.86141 25.6929 59.886 -2.60123 11.66 1.22836 10.5414 -89.4408 5.777 2.68826 1.02738 -5.89149 2.73086 0.907992 -28.4402 2.2552 1.78806 -8.4275 2.2552 1.78806 101.204 4.27056 -86.5109 -18.7322 26.2023 -47.8958 -0.0938425 -32.2542 -6.55288 -23.2919 -1.79308 3.80397 -85.756 -36.5315 82.6593 2.38648 0.492396 -85.271 7.24104 36.5345 -20.7376 47.0305 8.9591 15.1353 14.2849 -7.92931 30.5122 17.3593 -21.6456 -31.7202 
2.49753 47.2585 39.3919 10.1643 -33.7211 10.6317 -178.106 48.2333 104.002 -95.9207 12.4828 1.14385 64.5973 0.325266 -14.3738 58.4741 -11.6296 -13.9702 163.023 34.4915 77.7436 -79.1035 -18.2705 1.8631 90.1484 -6.37066 24.7012 62.9223 -2.23733 14.2419 1.2561 10.4124 -89.2771 6.03287 2.81373 1.33619 -5.63555 2.86982 1.21098 -28.1831 2.2821 2.12025 -8.17043 2.2821 2.12025 101.229 2.19266 -86.4676 -22.353 20.4401 -43.9244 5.30784 -33.4063 -5.2375 -33.3717 -3.46935 6.0704 -89.0818 -46.7578 79.1765 6.96217 3.2343 -77.2287 11.4713 42.9952 -27.9332 48.1166 9.55444 15.9271 18.997 -8.99887 29.6585 13.5892 -22.3657 -31.3191 
0.0850732 43.1849 48.1046 13.7493 -29.3244 11.0699 -176.898 43.1761 104.592 -86.7796 17.4172 1.37641 60.2278 -0.858522 -12.4721 57.4425 -11.7223 -17.1762 162.004 25.93 78.3751 -67.23 -15.8008 4.4048 89.8754 -5.53491 25.8439 58.5593 -1.47618 19.1848 0.763097 9.95027 -88.7905 6.94679 2.04267 2.29646 -4.72442 2.14174 2.20434 -27.249 1.25836 2.80387 -7.23634 1.25836 2.80385 102.208 -4.9446 -81.001 -22.3516 14.3121 -42.1818 2.95355 -22.5156 -21.9444 -53.6684 -5.03957 5.01454 -90.0575 -54.2008 79.2658 11.3715 5.78684 -65.3666 19.2615 43.5202 -38.2849 50.7433 10.1551 15.9497 17.8265 -9.867 22.4999 16.1543 -20.6716 -26.821 
-1.80128 38.3426 55.3591 15.5424 -25.6765 11.4459 -172.439 39.3906 105.684 -79.745 17.9765 0.987234 55.2625 -2.26184 -13.1731 56.4628 -10.903 -15.0784 163.004 17.8824 79.6454 -54.9807 -13.4758 5.98527 86.8574 -3.78087 27.2208 59.4714 -0.707854 23.6482 0.173526 9.27722 -88.5549 8.29883 0.98235 2.79758 -3.37466 1.10449 2.75167 -25.8858 0.0965652 2.96335 -5.87315 0.0965678 2.96334 103.13 -9.20191 -79.134 -21.238 7.08043 -40.9566 -1.3014 -16.3275 -41.8467 -59.8006 -4.46797 2.7218 -91.153 -55.2967 77.9346 15.2438 8.95956 -50.108 22.0925 39.4627 -42.491 41.4121 8.76002 17.4296 14.6069 -9.63974 13.7442 19.9091 -17.1233 -20.4348 
-3.17876 33.589 61.0937 16.3253 -22.5111 10.7041 -167.186 36.2312 106.002 -73.7637 17.3843 -0.0632439 52.0363 -3.01661 -12.6177 56.2202 -10.7929 -15.1067 165.149 12.3335 80.6887 -45.846 -12.1753 5.79396 82.9868 -2.05107 28.0458 53.5395 -0.237952 31.5152 -0.0244204 8.59498 -88.2191 9.65833 0.755859 3.47527 -2.01693 0.90799 3.43869 -24.5147 -0.32284 3.54175 -4.5021 -0.322833 3.54175 103.637 -10.3727 -77.7002 -18.4765 -3.08878 -36.2715 -4.85127 -12.6277 -59.1731 -72.7979 -3.50137 -0.363875 -89.6932 -54.6323 79.8692 14.1035 12.4818 -39.7897 19.2049 37.9849 -41.3984 54.775 9.96026 13.8937 15.5246 -9.75014 8.76104 18.5098 -15.4595 -19.103 
-3.89038 28.5907 65.8701 18.0669 -19.491 10.3624 -164.892 32.9662 106.381 -67.9467 16.3328 -0.71432 49.2993 -3.67868 -14.539 56.639 -10.2947 -10.8794 166.71 7.47187 81.7749 -38.8055 -10.6009 5.42617 79.6025 -1.15876 27.2544 51.7679 -0.535661 31.1247 -0.12223 7.97778 -88.0817 10.893 0.643447 3.75313 -0.783095 0.807898 3.72121 -23.2751 -0.513423 3.77308 -3.26249 -0.513424 3.77308 104.017 -11.3525 -76.6668 -13.708 -12.899 -28.4104 -11.434 -10.9522 -75.6251 -74.0533 -4.30736 0.668348 -87.6388 -53.5922 82.6378 12.8312 17.693 -32.346 18.4917 36.4279 -41.0119 49.6292 7.79528 11.7424 16.3688 -10.3157 8.30424 16.6458 -15.4714 -18.3698 
-4.14701 23.3073 69.6181 18.5052 -16.9488 9.23887 -163.084 29.578 106.42 -62.6151 15.4557 -1.30076 45.3149 -4.51319 -16.2209 57.1106 -10.4362 -10.5591 168.269 4.12036 82.4568 -33.9331 -10.3416 4.30226 74.3668 0.454255 26.8727 51.8733 -0.437735 32.0451 -0.151481 7.45356 -87.9793 11.9382 0.65085 3.95961 0.26156 0.824359 3.92719 -22.2259 -0.568268 3.97228 -2.21327 -0.568279 3.97227 104.44 -13.1131 -75.714 -6.00505 -18.1921 -17.1088 -21.464 -0.0838819 -90.1795 -74.0328 -4.74053 1.23725 -86.1374 -50.3518 84.3505 9.43921 24.3745 -23.557 19.3132 34.7734 -43.4719 50.9059 8.04635 11.7715 19.9472 -10.9024 7.40847 14.186 -15.5576 -18.3803 
-3.82292 19.0521 71.9852 23.4 -13.5463 8.62938 -164.314 27.8081 104.899 -57.894 16.7953 -1.14722 42.1495 -5.2401 -16.5649 57.5754 -11.0734 -13.1232 167.099 2.07597 81.3443 -30.2604 -8.28415 5.63685 68.2059 2.91429 28.1022 52.1773 -0.187564 34.25 -0.783863 7.05778 -87.9729 12.7514 -0.587611 4.12134 1.07398 -0.405833 4.14313 -21.4169 -1.79824 3.75515 -1.40427 -1.79824 3.75513 104.62 -12.2956 -75.0741 0.789933 -23.2707 -5.42981 -30.3749 5.10881 -102.784 -71.2834 -5.34297 2.40349 -85.5809 -49.0917 85.0121 5.30375 28.8646 -13.8664 19.733 33.6109 -44.7083 51.7092 7.77841 10.9768 26.4251 -10.4484 8.59703 9.48591 -15.2237 -19.0319 
-3.85299 15.0167 73.7982 22.5349 -9.28691 6.9608 -162.069 28.1481 104.83 -54.256 16.5209 -2.3006 39.5808 -5.64881 -19.0179 57.7462 -11.0261 -12.4055 166.957 3.08652 81.0093 -27.3646 -9.10173 5.79097 63.1026 4.42558 28.3172 52.0364 0.0774215 37.1574 -1.01281 6.64372 -88.0426 13.5891 -1.05926 4.05823 1.91212 -0.879769 4.10082 -20.5854 -2.22923 3.55335 -0.572762 -2.22924 3.55335 104.667 -11.3991 -74.7911 5.97171 -25.213 4.83706 -36.8978 15.2612 -113.053 -67.339 -6.87729 5.28667 -84.199 -46.4175 86.8059 -1.11857 31.4773 -5.08373 27.5292 36.9978 -50.3286 47.0518 7.08053 11.113 33.8255 -10.5022 8.55976 5.62775 -15.0025 -18.1378 
-4.22038 11.0492 75.1956 17.8649 -5.55433 6.02558 -156.45 28.117 106.795 -51.0036 10.4291 -4.55375 38.3269 -5.27554 -23.4609 58.9754 -10.9516 -9.16466 168.956 3.97701 82.3638 -27.0547 -6.01557 4.34339 62.6837 4.73912 29.8906 54.6782 -0.934583 25.4964 -0.781673 6.0978 -88.3824 14.6782 -0.746842 3.36749 3.00298 -0.597989 3.39705 -19.5049 -1.72396 2.98794 0.507762 -1.72395 2.98794 104.597 -10.5272 -74.8523 9.73229 -25.7067 13.2098 -38.6 23.9019 -121.625 -65.0483 -7.13844 6.15845 -83.0346 -45.8503 88.5831 -5.27659 36.2228 1.50463 23.6335 36.1038 -48.5315 50.0771 8.78309 13.5172 34.3881 -9.81947 7.62442 6.15548 -13.8294 -15.4495 
-4.09225 9.97074 76.5832 14.6013 -5.11226 5.61043 -155.906 23.872 107.744 -44.1934 9.25568 -4.76159 36.8933 -5.36565 -23.7107 60.1099 -11.1223 -7.66659 167.597 3.87992 81.192 -27.49 -2.64121 4.65743 65.1702 4.13306 32.0403 55.1222 -1.86697 16.3937 -0.466676 6.31962 -88.9889 14.2364 -0.429455 2.07467 2.56385 -0.337739 2.09155 -19.9609 -1.03303 1.84982 0.0517167 -1.03303 1.84982 105.33 -12.0124 -72.9757 5.47174 -16.9906 12.6443 -35.0521 25.7148 -131.044 -61.2127 -6.84638 6.53865 -84.1788 -46.8663 86.8828 -9.52563 39.6364 6.06528 20.9365 35.0782 -46.8398 58.0532 8.97169 11.1517 34.5217 -8.14187 9.51688 9.23864 -13.3383 -14.0939 
-3.87673 10.2871 77.5321 12.2841 -2.38979 4.57793 -157.14 21.8889 105.369 -35.2687 8.66778 -5.08049 35.0775 -5.67584 -23.2658 61.9522 -11.9623 -8.25036 168.446 6.36443 80.7849 -24.1115 -5.47808 3.77594 63.315 4.17292 30.071 62.7877 -0.770751 22.1526 -0.258503 6.20995 -89.5707 14.4545 -0.300376 0.904582 2.7832 -0.260268 0.91692 -19.7502 -0.55835 0.772497 0.262375 -0.558347 0.772496 105.312 -13.6818 -73.3704 -3.2541 -3.10681 8.86234 -33.8692 24.9025 -137.875 -59.2739 -8.82591 10.5058 -81.6848 -42.2552 90.4506 -15.3451 35.4184 10.8335 30.5421 33.2761 -54.5384 52.7073 10.4734 15.7345 36.8379 -4.96067 16.3955 7.49778 -13.8481 -18.0403 
-3.46563 9.93066 77.6356 11.9592 -1.44539 3.08163 -157.428 20.3602 103.493 -32.9532 7.65982 -5.43269 35.3473 -5.58735 -23.814 63.5254 -12.3644 -7.34029 168.462 8.36757 79.1821 -25.7303 -6.59943 3.17086 62.8491 4.59092 31.2131 65.816 -1.53992 17.7472 0.198912 6.05838 -89.7586 14.7601 0.513261 0.41019 3.08925 0.530824 0.387198 -19.4462 0.366252 0.545481 0.566462 0.366244 0.545475 106.39 -15.1153 -70.7344 -12.2297 26.4915 6.86209 -23.5716 7.91107 -146.366 -56.5343 -6.15719 6.30822 -79.5574 -37.1561 93.7678 -10.7557 12.6002 10.7315 25.1499 20.0222 -51.592 51.9432 7.48823 10.414 34.8645 -3.87529 24.0384 8.83987 -16.5216 -21.9088 
-3.0577 10.0879 77.235 12.2992 -2.95156 3.34681 -156.84 19.9594 103.947 -35.8791 7.76301 -5.38501 39.4495 -4.69318 -26.1726 66.0775 -11.8865 -1.32606 169.188 8.35998 79.4343 -27.5795 -8.46936 2.36592 61.8925 4.51257 28.9011 63.8186 -0.463002 23.6086 0.770477 5.97468 -90.1563 14.9274 1.4467 -0.528959 3.25709 1.42203 -0.592132 -19.2841 1.53878 -0.0696206 0.728528 1.53878 -0.0696198 105.785 -13.3851 -72.0252 -13.9105 68.5257 0.606986 -16.97 -12.0906 -140.636 -41.917 -3.03891 3.03922 -76.9996 -41.5514 98.2757 3.6366 -18.6355 1.66777 23.1357 9.55519 -62.7601 57.6161 6.73717 7.22438 26.3015 -5.49304 34.4111 12.6801 -21.8737 -28.1548 
-3.09293 10.1798 76.8658 12.9057 -2.97196 2.81197 -156.164 20.6608 103.331 -37.6463 6.53283 -5.95794 39.9591 -4.60384 -26.7046 65.4931 -11.5459 -0.731276 168.757 8.24489 78.8206 -27.6391 -8.59102 2.80552 62.6402 4.30377 27.6683 67.1425 -0.367461 23.0359 1.16401 5.82281 -90.1505 15.2372 2.22654 -0.641314 3.56794 2.19616 -0.73874 -18.9826 2.31628 0.0578619 1.03004 2.31629 0.0578565 105.4 -11.2281 -72.5852 -12.9196 72.7851 -3.84257 -13.4428 -15.4334 -136.896 -34.4413 -1.88019 0.968859 -76.5823 -38.5827 99.0438 3.89423 -40.1831 -16.3682 21.8454 5.15223 -79.6908 40.0365 2.97653 3.63586 26.0418 -6.43633 39.0844 12.265 -24.6272 -30.713 
-3.2054 10.2477 76.6099 12.9441 -3.62747 2.79018 -155.95 20.4783 103.648 -38.8489 6.66616 -5.91726 41.1154 -4.42982 -27.1091 65.2287 -11.0182 1.15465 168.217 7.85021 78.3537 -28.2023 -6.53028 3.01688 63.6709 4.31846 29.4957 65.9655 0.0633077 25.2306 0.856167 5.76756 -90.3449 15.346 1.52006 -0.927491 3.67558 1.47777 -0.993497 -18.8659 1.72852 -0.427666 1.14669 1.72852 -0.427675 103.823 -11.5349 -77.2732 -19.4916 70.4024 -0.904055 -16.7731 -10.7199 -138.589 -31.3495 -2.48283 3.82888 -76.7379 -30.4557 98.9984 -12.4233 -55.0933 -39.2636 16.8285 3.0958 -92.7809 21.6245 0.322807 -2.42517 31.2513 -3.12215 38.6221 6.94654 -21.5793 -29.4329 
